<?xml version="1.0" encoding="UTF-8"?>
<!DOCTYPE svg PUBLIC "-//W3C//DTD SVG 1.1//EN" "http://www.w3.org/Graphics/SVG/1.1/DTD/svg11.dtd">
<!-- Creator: CorelDRAW 2019 (64 Bit) -->
<svg xmlns="http://www.w3.org/2000/svg" xml:space="preserve" width="878" height="660" version="1.1" shape-rendering="geometricPrecision" text-rendering="geometricPrecision" image-rendering="optimizeQuality" fill-rule="evenodd" clip-rule="evenodd"
viewBox="0 0 3125 2083.33"
 xmlns:xlink="http://www.w3.org/1999/xlink">
 <g id="Camada_x0020_1">
  <metadata id="CorelCorpID_0Corel-Layer"/>
  <path fill="#78BAE6" fill-rule="nonzero" d="M1577.25 239.85l120.75 0c0,0 8.75,-34.13 -21.87,-19.25 -3.5,-20.13 -13.72,-26.76 -37.92,-3.75 -4.96,-24.25 -46.96,-6.75 -60.96,23z"/>
  <polygon fill="#67A6D9" fill-rule="nonzero" points="1623.01,801.3 1649.45,801.3 1649.45,401.79 1623.01,401.79 "/>
  <path fill="#37498B" fill-rule="nonzero" d="M1262.93 925.29l-137.24 0c-8.58,0 -15.54,-6.95 -15.54,-15.54l0 -6.14c0,-8.58 6.96,-15.54 15.54,-15.54l137.24 0c8.58,0 15.55,6.96 15.55,15.54l0 6.14c0,8.59 -6.97,15.54 -15.55,15.54z"/>
  <path fill="#FF8E72" fill-rule="nonzero" d="M2027.78 1556.95l-372.23 0c-29.14,0 -52.77,-23.63 -52.77,-52.78l425 0 0 52.78z"/>
  <polygon fill="#DE5A4D" fill-rule="nonzero" points="1721.88,1362.5 1526.04,1362.5 1459.38,1228.13 1721.88,1228.13 "/>
  <path fill="#DE5A4D" fill-rule="nonzero" d="M2155.96 1228.62c-1,1.34 -2.13,2.63 -3.33,3.88l-135.96 138.71 -119.13 121.5 -1.71 1.75 -568.04 0 2.46 -1.75 68.5 -48.46 380.42 -269.25 349.29 0c28.25,0 43.33,32.04 27.5,53.62z"/>
  <path fill="#25252B" fill-rule="nonzero" d="M2205.75 1102.88l-0.46 0.37 -35.12 25.92 -39.59 29.25 -37.54 27.71 -316.66 -1.42 -55.55 44.46 -261.12 0 0 -21.55c0,-29.42 9.71,-56.58 26.04,-78.45l0.87 -1.13c24,-31.42 61.8,-51.67 104.34,-51.67l605.46 0c14.16,0 20.25,17.84 9.33,26.51z"/>
  <path fill="#818282" fill-rule="nonzero" d="M1702.64 1229.17l-23.56 0 100.09 -70.84 349.29 0c0.71,0 1.42,0.04 2.12,0.09l-22.47 16.58 -328.94 0 -76.53 54.17z"/>
  <path fill="#A63228" fill-rule="nonzero" d="M2155.96 1228.62c-465.71,-2.41 -624.71,165.3 -678.17,265.84l-69.87 0c-3,-15.92 -6.13,-33.04 -9.17,-50.21l380.42 -269.25 349.29 0c28.25,0 43.33,32.04 27.5,53.62z"/>
  <path fill="#050505" fill-rule="nonzero" d="M2206.25 1102.5l-0.5 0.38 -35.58 26.29 -684.42 0 0.87 -1.13c24,-31.42 61.8,-51.67 104.34,-51.67l606.71 0c13.96,0 19.83,17.84 8.58,26.13z"/>
  <polygon fill="#FF8E72" fill-rule="nonzero" points="1400,1499.3 963.19,1499.3 963.19,1390.28 1475.35,1390.28 "/>
  <path fill="#37498B" fill-rule="nonzero" d="M1089.42 1592.88c0,20.04 -3.42,39.29 -9.71,57.24 -2,5.8 -4.33,11.46 -6.96,16.96 -27.83,58.67 -87.54,99.21 -156.79,99.21 -92.92,0 -168.79,-73.04 -173.25,-164.79 -0.09,-1.63 -0.13,-3.25 -0.17,-4.87 -0.04,-1.26 -0.04,-2.5 -0.04,-3.75 0,-13.34 1.5,-26.34 4.33,-38.8 0.63,-2.66 1.29,-5.37 2.04,-7.95 20.42,-73.09 87.46,-126.75 167.09,-126.75 52.21,0 99.08,23.08 130.87,59.58 20.17,23.25 34.34,51.87 39.88,83.54 1.79,9.83 2.71,20 2.71,30.38z"/>
  <path fill="#395EA9" fill-rule="nonzero" d="M1067.36 1677.54l-0.01 0c1.91,-3.42 3.71,-6.9 5.4,-10.46 0.81,-1.7 1.6,-3.42 2.35,-5.15 -0.75,1.74 -1.54,3.46 -2.35,5.17 -1.68,3.55 -3.48,7.03 -5.39,10.44z"/>
  <path fill="#3A66AE" fill-rule="nonzero" d="M1020.22 1731.47c19.2,-14.47 35.3,-32.84 47.13,-53.93l0.01 0c-11.83,21.09 -27.93,39.46 -47.14,53.93l0 0z"/>
  <path fill="#3459A6" fill-rule="nonzero" d="M915.97 1766.3c-17.33,0 -34.07,-2.54 -49.86,-7.28 15.79,4.73 32.52,7.27 49.85,7.27 39.15,0 75.24,-12.96 104.26,-34.82l0 0c-29.01,21.87 -65.12,34.83 -104.25,34.83zm-49.93 -7.3c-0.04,-0.01 -0.09,-0.02 -0.13,-0.03 0.04,0.01 0.09,0.02 0.13,0.03z"/>
  <path fill="#395EA9" fill-rule="nonzero" d="M1077.45 1656.25c0.79,-2.02 1.55,-4.07 2.26,-6.13l0 0c5.2,-14.85 8.44,-30.58 9.4,-46.92 -1.1,18.63 -5.14,36.47 -11.66,53.05zm11.67 -53.13c0,-0.05 0,-0.1 0,-0.14 0,0.04 0,0.09 0,0.14zm0.01 -0.29c0.01,-0.04 0.01,-0.08 0.01,-0.11 0,0.03 0,0.07 -0.01,0.11z"/>
  <path fill="#353B68" fill-rule="nonzero" d="M915.96 1766.29c-17.33,0 -34.06,-2.54 -49.85,-7.27 -0.03,0 -0.05,-0.01 -0.07,-0.02 -0.04,-0.01 -0.09,-0.02 -0.13,-0.03 -33.61,-10.13 -62.92,-30.18 -84.53,-56.74 30.83,28.14 71.84,45.32 116.89,45.32 69.21,0 128.96,-40.57 156.78,-99.2 0.26,-0.55 0.52,-1.11 0.77,-1.67l23.89 3.44c-0.71,2.06 -1.47,4.11 -2.26,6.13 -0.75,1.91 -1.53,3.8 -2.35,5.68 -0.75,1.73 -1.54,3.45 -2.35,5.15 -1.69,3.56 -3.49,7.04 -5.4,10.46 -11.83,21.09 -27.93,39.46 -47.13,53.93 -29.02,21.86 -65.11,34.82 -104.26,34.82z"/>
  <path fill="#6DA4CF" fill-rule="nonzero" d="M1031.91 1592.85c0,64.02 -51.91,115.93 -115.94,115.93 -64.02,0 -115.92,-51.91 -115.92,-115.93 0,-64.03 51.9,-115.93 115.92,-115.93 64.03,0 115.94,51.9 115.94,115.93z"/>
  <path fill="#37498B" fill-rule="nonzero" d="M986.81 1592.85c0,39.12 -31.71,70.84 -70.84,70.84 -39.12,0 -70.83,-31.72 -70.83,-70.84 0,-39.12 31.71,-70.84 70.83,-70.84 39.13,0 70.84,31.72 70.84,70.84z"/>
  <path fill="#FEFEFE" fill-rule="nonzero" d="M948.41 1592.85c0,17.91 -14.52,32.43 -32.44,32.43 -17.91,0 -32.43,-14.52 -32.43,-32.43 0,-17.91 14.52,-32.43 32.43,-32.43 17.92,0 32.44,14.52 32.44,32.43z"/>
  <path fill="#353B68" fill-rule="nonzero" d="M1055.82 1646.68l-34.67 -5c6.69,-14.39 10.52,-30.37 10.75,-47.22l30.32 0 8.3 0c-2.16,18.45 -7.22,36.01 -14.7,52.22zm33.29 -43.48c0,-0.03 0.01,-0.05 0.01,-0.08 0,0.03 -0.01,0.05 -0.01,0.08zm0.01 -0.22c0.01,-0.05 0.01,-0.1 0.01,-0.15 0,0.05 0,0.1 -0.01,0.15zm0.02 -0.26c0.16,-2.74 0.24,-5.49 0.27,-8.26l0 0c-0.03,2.77 -0.11,5.52 -0.27,8.26z"/>
  <path fill="#2F3051" fill-rule="nonzero" d="M1079.71 1650.12l-23.89 -3.44c7.48,-16.21 12.54,-33.77 14.7,-52.22l18.89 0c-0.03,2.77 -0.11,5.52 -0.27,8.26 0,0.03 0,0.07 -0.01,0.11 0,0.05 0,0.1 -0.01,0.15 0,0.04 0,0.09 0,0.14 0,0.03 -0.01,0.05 -0.01,0.08 -0.96,16.34 -4.2,32.07 -9.4,46.92l0 0z"/>
  <path fill="#353B68" fill-rule="nonzero" d="M801.3 1609.95l-58.59 -8.45 0 0c-0.09,-1.63 -0.13,-3.25 -0.17,-4.87 -0.02,-0.73 -0.03,-1.45 -0.04,-2.17l57.55 0c0.08,5.26 0.5,10.43 1.25,15.49z"/>
  <path fill="#426697" fill-rule="nonzero" d="M1021.15 1641.68l-48.05 -6.93c8.33,-11.34 13.36,-25.23 13.7,-40.29l45.1 0c-0.23,16.85 -4.06,32.83 -10.75,47.22zm-171.83 -24.8l-48.02 -6.93c-0.75,-5.06 -1.17,-10.23 -1.25,-15.49l45.1 0c0.18,7.86 1.64,15.4 4.17,22.42z"/>
  <path fill="#353B68" fill-rule="nonzero" d="M973.1 1634.75l-123.78 -17.87c-2.53,-7.02 -3.99,-14.56 -4.17,-22.42l38.43 0c0.84,17.17 15.02,30.82 32.39,30.82 17.38,0 31.56,-13.65 32.4,-30.82l38.43 0c-0.34,15.06 -5.37,28.95 -13.7,40.29z"/>
  <path fill="#8499B8" fill-rule="nonzero" d="M915.97 1625.28c-17.37,0 -31.55,-13.65 -32.39,-30.82l64.79 0c-0.84,17.17 -15.02,30.82 -32.4,30.82z"/>
  <path fill="#818282" fill-rule="nonzero" d="M1641.06 1149.59c5.48,-7.19 11.5,-13.97 17.85,-20.42l51.88 0 0 0c-16.27,6.37 -41.33,14.78 -69.73,20.42zm-123.61 -5.51c-9.14,-3.84 -17.79,-8.75 -25.74,-14.91l31.04 0c-1.87,4.93 -3.65,9.91 -5.3,14.91z"/>
  <path fill="#050505" fill-rule="nonzero" d="M1710.79 1129.17l-51.88 0c3.16,-3.22 6.41,-6.35 9.72,-9.42 8.04,-7.42 16.45,-14.46 24.99,-21.29 15.97,-4.09 31.53,-11.82 45.17,-22.09l36.75 0c-11.62,19.88 -31.37,39.75 -64.75,52.8zm-188.04 0l-31.04 0c-1.35,-1.05 -3.38,-0.75 -5.09,-1.13 14.33,-18.75 33.58,-33.53 55.81,-42.39 -6.54,12.39 -12.77,25.83 -18.47,40.39 -0.41,1.04 -0.81,2.08 -1.21,3.13z"/>
  <path fill="#DE5A4D" fill-rule="nonzero" d="M1126.83 1592.88c0,0.54 -0.04,1.04 -0.04,1.58l-421.71 0c0,-0.54 -0.04,-1.04 -0.04,-1.58 0,-16.21 1.83,-32.01 5.29,-47.17 0.75,-3.21 1.59,-6.5 2.46,-9.67 20.59,-73.62 80.04,-131 154.88,-148.5 15.54,-3.67 31.7,-5.58 48.33,-5.58 63.46,0 120.42,28.04 159.04,72.46 24.54,28.25 41.75,63.04 48.5,101.5 1.71,9.25 2.75,18.66 3.13,28.29 0.12,2.87 0.16,5.75 0.16,8.67z"/>
  <path fill="#FF8E72" fill-rule="nonzero" d="M728.05 1545.72c0.76,-3.23 1.58,-6.52 2.47,-9.69 24.01,-85.9 101,-149.72 193.6,-153.86 -2.71,-0.11 -5.41,-0.22 -8.14,-0.22 -96.83,0 -178.33,65.23 -203.17,154.08 -0.88,3.17 -1.71,6.46 -2.47,9.69 -3.47,15.15 -5.29,30.94 -5.29,47.15 0,0.53 0.02,1.06 0.02,1.59l17.71 0c0,-0.53 -0.02,-1.06 -0.02,-1.59 0,-16.21 1.82,-32 5.29,-47.15z"/>
  <path fill="#4D7CBE" fill-rule="nonzero" d="M1126.8 1594.46l-37.39 0 37.38 0c0,-0.54 0.04,-1.04 0.04,-1.58 0,-2.92 -0.04,-5.8 -0.16,-8.67 -0.04,-0.9 -0.08,-1.8 -0.12,-2.69 0.2,3.75 0.3,7.54 0.3,11.35 0,0.53 -0.04,1.06 -0.05,1.59z"/>
  <path fill="#4D7CBE" fill-rule="nonzero" d="M1124.55 1561.88c-0.31,-2 -0.64,-3.98 -1.01,-5.96 -1.07,-6.13 -2.41,-12.16 -4.01,-18.09l0.02 0c1.59,5.94 2.93,11.97 4.01,18.1 0.36,1.97 0.69,3.96 0.99,5.95z"/>
  <path fill="#384581" fill-rule="nonzero" d="M1101.57 1492.71l-0.02 0c-7.42,-13.76 -16.34,-26.58 -26.51,-38.29 -0.7,-0.81 -1.41,-1.61 -2.12,-2.41l0.02 0c0.71,0.79 1.42,1.59 2.12,2.4 10.17,11.7 19.08,24.54 26.51,38.3z"/>
  <path fill="#ED6A5E" fill-rule="nonzero" d="M1126.79 1594.46l-64.57 0c0,-0.53 0.04,-1.06 0.04,-1.59 0,-6.04 -0.25,-12.01 -0.76,-17.9 17.48,6.12 35.67,9.62 54.45,9.62 3.55,0 7.13,-0.12 10.72,-0.38 -0.04,-0.9 -0.08,-1.8 -0.12,-2.69l0 0c0.04,0.89 0.08,1.79 0.12,2.69 0.12,2.87 0.16,5.75 0.16,8.67 0,0.54 -0.04,1.04 -0.04,1.58z"/>
  <path fill="#ED6A5E" fill-rule="nonzero" d="M1126.55 1581.52c-0.36,-6.64 -1.03,-13.19 -2,-19.64 0.98,6.46 1.65,13 2,19.64zm-65.05 -6.55c-90.31,-31.67 -161.1,-133.4 -191.34,-183.28 3.17,-1 6.39,-1.93 9.62,-2.78 2.03,1.74 4.03,3.42 5.74,5.09 6.8,6.6 13.6,13.2 20.4,19.81 21.18,20.58 42.37,41.16 63.57,61.74 6.92,6.72 13.84,13.44 20.76,20.16l0.02 -0.01c0.01,0.01 0.02,0.03 0.03,0.04 0.18,0.01 0.37,0.01 0.55,0.03l25.98 22.61c10.81,9.37 23.88,15.6 37.78,18.15 1.75,6.35 3.21,12.82 4.36,19.4 1.14,6.25 1.98,12.6 2.53,19.04z"/>
  <path fill="#4672B6" fill-rule="nonzero" d="M870.16 1391.69c-0.86,-1.42 -1.69,-2.81 -2.49,-4.15 2.8,-0.66 5.63,-1.27 8.47,-1.81 1.19,1.08 2.42,2.14 3.64,3.18 -3.23,0.85 -6.45,1.78 -9.62,2.78z"/>
  <path fill="#DE5A4D" fill-rule="nonzero" d="M1115.95 1584.59c-18.78,0 -36.97,-3.5 -54.45,-9.62 -0.55,-6.44 -1.39,-12.79 -2.53,-19.04 -1.15,-6.58 -2.61,-13.05 -4.36,-19.4 4.69,0.86 9.48,1.3 14.31,1.3l50.61 0c1.6,5.93 2.94,11.96 4.01,18.09 0.37,1.98 0.7,3.96 1.01,5.96 0.97,6.45 1.64,13 2,19.64 0.04,0.89 0.08,1.79 0.12,2.69 -3.59,0.26 -7.17,0.38 -10.72,0.38z"/>
  <path fill="#3856A3" fill-rule="nonzero" d="M1101.55 1492.71l-38.06 0c-6,-5.43 -14.66,-13.26 -17.66,-15.88 -2.48,-2.18 -4.93,-4.38 -7.36,-6.6l34.45 -18.22c0.71,0.8 1.42,1.6 2.12,2.41 10.17,11.71 19.09,24.53 26.51,38.29z"/>
  <path fill="#A63228" fill-rule="nonzero" d="M1909.71 1492.71l0 45.12 -840.79 0c-19.13,0 -37.63,-6.91 -52.09,-19.45l-29.5 -25.67 922.38 0z"/>
  <polygon fill="#DE5A4D" fill-rule="nonzero" points="989.06,1493.05 1578.47,1493.05 1578.47,1452.08 989.06,1452.08 "/>
  <path fill="#ED6A5E" fill-rule="nonzero" d="M1190.08 1390.08l-168.37 89 -31.29 16.54 -0.17 0.09c-17.77,-17.26 -35.55,-34.53 -53.32,-51.79 -19.58,-19.02 -38.82,-38.48 -58.79,-57.09 -27.57,-25.71 -14.97,-67.42 -7.8,-99.61 7.25,-32.59 14.69,-65.22 23.95,-97.3 39.04,-134.92 98.54,-226.46 152.88,-254.17 10.08,-5.12 20,-8.08 29.58,-8.67 26.17,-1.66 119.75,-0.87 98.25,32.63 -12.13,18.92 -23.08,51.29 -31.37,89.62 -15.55,71.54 -21.8,163.92 -8.92,228.46 15.29,76.38 55.37,112.29 55.37,112.29z"/>
  <path fill="#DE5A4D" fill-rule="nonzero" d="M1118.66 1035.56c-24.48,87.34 -38.99,201.14 -27.81,281.91 6.6,47.38 21.46,82.9 34.77,106.69l64.46 -34.08c0,0 -40.08,-35.91 -55.37,-112.29 -12.88,-64.54 -6.63,-156.92 8.92,-228.46 8.29,-38.33 19.24,-70.7 31.37,-89.62 8.22,-12.81 -0.4,-20.83 -15.63,-25.76 -14.72,23.17 -28.89,59.27 -40.71,101.61z"/>
  <path fill="#DE5A4D" fill-rule="nonzero" d="M1013.59 1447.37c-12.56,-11.1 -24.65,-22.7 -35.08,-35.68 -18.39,-22.89 -29.84,-51 -36.91,-79.31 -11.65,-46.7 -10.33,-95.85 -0.66,-142.77 27.13,-131.81 76.12,-225.36 125.91,-261.01 -6.46,1.43 -13.03,3.77 -19.68,7.15 -54.34,27.71 -113.84,119.25 -152.88,254.17 -9.24,31.93 -16.64,64.43 -23.86,96.86 -5.98,26.87 -15.46,64.1 -1.77,90.12 3.43,6.5 11.52,11.9 16.86,17.1 6.8,6.6 13.6,13.2 20.4,19.81 28.11,27.32 56.24,54.64 84.38,81.93 14.21,0.79 28.6,1.69 42.82,2.01 7.16,0.17 36.5,0.51 36.5,0.51 0,0 -19.03,-17.27 -23.79,-21.43 -10.91,-9.57 -21.25,-19.74 -32.24,-29.46z"/>
  <path fill="#FF8E72" fill-rule="nonzero" d="M1119.5 1032.58l-91.75 -63.71c2.34,-3.17 4.7,-6.22 7.06,-9.14l110.76 0c-9.35,20.22 -18.21,45.15 -26.07,72.85zm55.55 -72.95c0,-0.01 0.01,-0.02 0.01,-0.02 0,0 -0.01,0.01 -0.01,0.02zm0.05 -0.08c0,-0.01 0.01,-0.02 0.02,-0.03 -0.01,0.01 -0.02,0.02 -0.02,0.03zm0.05 -0.08c0,-0.01 0.01,-0.02 0.02,-0.03 -0.01,0.01 -0.02,0.02 -0.02,0.03zm0.05 -0.07c0,-0.02 0.01,-0.03 0.02,-0.04 -0.01,0.01 -0.02,0.02 -0.02,0.04zm0.05 -0.08c0,-0.02 0.01,-0.02 0.02,-0.04 -0.01,0.02 -0.02,0.02 -0.02,0.04zm0.05 -0.08c0,-0.02 0.01,-0.02 0.02,-0.04 -0.01,0.02 -0.02,0.02 -0.02,0.04zm0.04 -0.08c0.01,-0.01 0.02,-0.02 0.02,-0.03 0,0.01 -0.01,0.02 -0.02,0.03zm0.05 -0.07c0.01,-0.02 0.01,-0.03 0.02,-0.04 -0.01,0.01 -0.01,0.02 -0.02,0.04zm0.04 -0.08c0.01,-0.01 0.02,-0.03 0.03,-0.04 -0.01,0.01 -0.02,0.03 -0.03,0.04zm0.05 -0.07c1.15,-1.92 1.91,-3.74 2.32,-5.45 0,0 0,0 0.01,0 -0.42,1.71 -1.18,3.52 -2.33,5.45z"/>
  <path fill="#4369B1" fill-rule="nonzero" d="M1143.63 1049.33l-24.13 -16.75c7.86,-27.7 16.72,-52.63 26.07,-72.85l21.88 0c4.49,0 8.39,-2.53 10.35,-6.24 -0.41,1.71 -1.17,3.53 -2.32,5.45l0 0c-0.01,0.01 -0.01,0.02 -0.02,0.03l0 0c-0.01,0.01 -0.02,0.03 -0.03,0.04l0 0c0,0.01 -0.01,0.02 -0.02,0.04l0 0c-0.01,0.01 -0.01,0.02 -0.02,0.04l0 0c-0.01,0.01 -0.02,0.02 -0.03,0.04l0 0c0,0.01 -0.01,0.02 -0.02,0.03l0 0c-0.01,0.01 -0.01,0.03 -0.02,0.04l0 0c-0.01,0.02 -0.02,0.02 -0.02,0.04l0 0c-0.02,0.01 -0.02,0.03 -0.03,0.04l0 0c-0.01,0.02 -0.02,0.02 -0.02,0.04l0 0c-0.01,0.01 -0.02,0.03 -0.03,0.04l0 0c-0.01,0.01 -0.02,0.02 -0.02,0.04l0 0c-0.01,0.01 -0.02,0.03 -0.03,0.04l0 0c-0.01,0.01 -0.02,0.02 -0.02,0.03l0 0c-0.01,0.02 -0.02,0.03 -0.03,0.05l0 0c-0.01,0.01 -0.02,0.02 -0.02,0.03l0 0c-0.01,0.02 -0.02,0.04 -0.04,0.06l0 0c0,0 -0.01,0.01 -0.01,0.02l0 0c-0.02,0.02 -0.03,0.05 -0.05,0.08l0 0c-12.13,18.92 -23.08,51.29 -31.37,89.62l0 0z"/>
  <path fill="#4369B1" fill-rule="nonzero" d="M1027.75 968.87l-13.17 -9.14 20.23 0c-2.36,2.92 -4.72,5.97 -7.06,9.14z"/>
  <path fill="#37498B" fill-rule="nonzero" d="M2133.86 1592.86c0,26.57 -5.99,51.73 -16.66,74.24 -27.82,58.64 -87.57,99.2 -156.78,99.2 -94.57,0 -171.46,-75.63 -173.44,-169.67 -0.05,-1.25 -0.05,-2.51 -0.05,-3.77 0,-13.33 1.5,-26.32 4.34,-38.78 0.64,-2.66 1.31,-5.36 2.04,-7.97 20.43,-73.08 87.47,-126.73 167.11,-126.73 52.21,0 99.06,23.08 130.84,59.59 20.19,23.24 34.34,51.88 39.9,83.51 1.78,9.86 2.7,20 2.7,30.38z"/>
  <path fill="#3459A6" fill-rule="nonzero" d="M1960.42 1766.3c-0.09,0 -0.18,0 -0.27,0 0.09,0 0.18,0 0.27,0 0.95,0 1.89,0 2.83,-0.02 -0.94,0.02 -1.88,0.02 -2.83,0.02zm-0.35 0c-0.07,0 -0.12,0 -0.19,0 0.07,0 0.12,0 0.19,0zm-0.3 0c-0.05,0 -0.1,0 -0.16,0 0.06,0 0.11,0 0.16,0zm-0.27 0c-0.05,0 -0.1,0 -0.15,0 0.05,0 0.1,0 0.15,0zm-0.28 0c-0.04,0 -0.09,0 -0.14,0 0.05,0 0.09,0 0.14,0zm-0.26 0c-0.06,0 -0.1,0 -0.15,0 0.04,0 0.1,0 0.15,0zm-0.27 0c-0.06,0 -0.1,0 -0.15,0 0.05,0 0.09,0 0.15,0zm-0.27 -0.01c-0.05,0 -0.1,0 -0.14,0 0.04,0 0.09,0 0.14,0zm-0.28 0c-0.04,0 -0.09,0 -0.13,0 0.04,0 0.09,0 0.13,0zm-0.26 0c-0.05,0 -0.09,-0.01 -0.14,-0.01 0.05,0 0.09,0.01 0.14,0.01zm-0.28 -0.01c-0.04,0 -0.08,0 -0.12,0 0.04,0 0.08,0 0.12,0zm-0.27 0c-0.03,-0.01 -0.08,-0.01 -0.11,-0.01 0.03,0 0.08,0 0.11,0.01zm-0.26 -0.01c-0.04,0 -0.08,0 -0.12,0 0.04,0 0.08,0 0.12,0zm-0.27 0c-0.03,0 -0.07,0 -0.11,0 0.04,0 0.08,0 0.11,0zm-0.27 -0.01c-0.02,0 -0.04,0 -0.06,0 0.02,0 0.03,0 0.06,0zm-0.99 -0.02c-0.02,0 -0.04,0 -0.06,0 0.02,0 0.04,0 0.06,0zm-0.25 -0.01c-0.02,0 -0.04,0 -0.07,0 0.03,0 0.04,0 0.07,0zm-0.26 -0.01c-0.03,0 -0.05,0 -0.08,0 0.03,0 0.05,0 0.08,0zm-0.26 -0.01c-0.03,0 -0.05,0 -0.08,0 0.02,0 0.06,0 0.08,0zm-0.27 -0.01c-0.02,0 -0.05,0 -0.07,0 0.02,0 0.05,0 0.07,0zm-0.25 0c-0.03,0 -0.06,0 -0.09,-0.01 0.03,0.01 0.06,0.01 0.09,0.01zm-0.28 -0.01c-0.02,0 -0.04,-0.01 -0.06,-0.01 0.02,0 0.04,0.01 0.06,0.01zm-0.26 -0.01c-0.02,0 -0.04,0 -0.06,0 0.02,0 0.04,0 0.06,0zm-0.27 -0.01c-0.01,0 -0.03,0 -0.05,-0.01 0.02,0.01 0.04,0.01 0.05,0.01zm-0.26 -0.02c-0.02,0 -0.03,0 -0.04,0 0.01,0 0.02,0 0.04,0zm-0.27 0l-0.01 0 0.01 0z"/>
  <path fill="#353B68" fill-rule="nonzero" d="M1960.42 1766.3c-0.09,0 -0.18,0 -0.27,0 -0.02,0 -0.05,0 -0.08,0 -0.07,0 -0.12,0 -0.19,0 -0.03,0 -0.07,0 -0.11,0 -0.05,0 -0.1,0 -0.16,0 -0.03,0 -0.07,0 -0.11,0 -0.05,0 -0.1,0 -0.15,0 -0.05,0 -0.09,0 -0.13,0 -0.05,0 -0.09,0 -0.14,0 -0.04,0 -0.08,0 -0.12,0 -0.05,0 -0.11,0 -0.15,0 -0.04,0 -0.08,0 -0.12,0 -0.06,0 -0.1,0 -0.15,0 -0.04,0 -0.09,-0.01 -0.12,-0.01 -0.05,0 -0.1,0 -0.14,0 -0.05,0 -0.09,0 -0.14,0 -0.04,0 -0.09,0 -0.13,0 -0.05,0 -0.09,0 -0.13,0 -0.05,0 -0.09,-0.01 -0.14,-0.01 -0.04,0 -0.09,0 -0.14,0 -0.04,0 -0.08,0 -0.12,0 -0.05,0 -0.1,0 -0.15,0 -0.03,-0.01 -0.08,-0.01 -0.11,-0.01 -0.05,0 -0.11,0 -0.15,0 -0.04,0 -0.08,0 -0.12,0 -0.05,0 -0.1,0 -0.15,0 -0.03,0 -0.07,0 -0.11,0 -0.06,-0.01 -0.11,-0.01 -0.16,-0.01 -0.03,0 -0.04,0 -0.06,0 -0.31,-0.01 -0.62,-0.02 -0.93,-0.02 -0.02,0 -0.04,0 -0.06,0 -0.06,-0.01 -0.13,-0.01 -0.19,-0.01 -0.03,0 -0.04,0 -0.07,0 -0.07,0 -0.13,0 -0.19,-0.01 -0.03,0 -0.05,0 -0.08,0 -0.06,0 -0.12,0 -0.18,-0.01 -0.02,0 -0.06,0 -0.08,0 -0.06,0 -0.12,0 -0.19,-0.01 -0.02,0 -0.05,0 -0.07,0 -0.06,0 -0.13,0 -0.18,0 -0.03,0 -0.06,0 -0.09,-0.01 -0.06,0 -0.13,0 -0.19,0 -0.02,0 -0.04,-0.01 -0.06,-0.01 -0.07,0 -0.13,0 -0.2,0 -0.02,0 -0.04,0 -0.06,0 -0.07,-0.01 -0.14,-0.01 -0.21,-0.01 -0.01,0 -0.03,0 -0.05,-0.01 -0.07,0 -0.14,0 -0.21,-0.01 -0.02,0 -0.03,0 -0.04,0 -0.08,0 -0.16,0 -0.23,0l-0.01 0c-41.48,-1.77 -79.19,-18.11 -108.15,-44.02 27.68,18.67 61.02,29.59 96.92,29.59 69.21,0 128.96,-40.57 156.78,-99.2 0.88,-1.87 1.73,-3.74 2.55,-5.64l22.46 3.24c6.12,-17.48 9.52,-36.19 9.7,-55.66l0.7 0c-0.02,1.95 -0.07,3.9 -0.15,5.84 -1.01,23.83 -6.84,46.4 -16.51,66.8 -27.44,57.83 -85.94,98.09 -153.95,99.18 -0.94,0.02 -1.88,0.02 -2.83,0.02z"/>
  <path fill="#6DA4CF" fill-rule="nonzero" d="M2076.35 1592.85c0,64.02 -51.9,115.93 -115.93,115.93 -64.02,0 -115.93,-51.91 -115.93,-115.93 0,-64.03 51.91,-115.93 115.93,-115.93 64.03,0 115.93,51.9 115.93,115.93z"/>
  <path fill="#F89F36" fill-rule="nonzero" d="M1047.4 906.95c0,26.89 -21.81,48.69 -48.7,48.69 -26.9,0 -48.7,-21.8 -48.7,-48.69 0,-26.9 21.8,-48.7 48.7,-48.7 26.89,0 48.7,21.8 48.7,48.7z"/>
  <path fill="#516FB4" fill-rule="nonzero" d="M1167.45 959.73l-152.87 0 0 -109.73 72.4 0c50.91,0 92.19,41.27 92.19,92.19l0 5.81c0,6.48 -5.25,11.73 -11.72,11.73z"/>
  <path fill="#FEFEFE" fill-rule="nonzero" d="M1014.58 933.33l0 26.39 153.13 0c6.33,0 11.46,-5.13 11.46,-11.46l0 -8.73c0,-2.08 -0.07,-4.14 -0.17,-6.2l-164.42 0z"/>
  <path fill="#37498B" fill-rule="nonzero" d="M2031.26 1592.85c0,39.12 -31.71,70.84 -70.84,70.84 -39.12,0 -70.84,-31.72 -70.84,-70.84 0,-39.12 31.72,-70.84 70.84,-70.84 39.13,0 70.84,31.72 70.84,70.84z"/>
  <path fill="#FEFEFE" fill-rule="nonzero" d="M1014.58 959.72l-7.91 -26.05c-8.89,-29.22 -24.29,-56.05 -45.07,-78.46 -1.84,-1.98 -0.43,-5.21 2.28,-5.21l50.7 0 0 109.72z"/>
  <path fill="#37498B" fill-rule="nonzero" d="M1259.17 928.07l-131.1 0c-10.28,0 -18.61,-8.33 -18.61,-18.61 0,-10.28 8.33,-18.61 18.61,-18.61l131.1 0c10.28,0 18.61,8.33 18.61,18.61 0,10.28 -8.33,18.61 -18.61,18.61z"/>
  <path fill="#494E63" fill-rule="nonzero" d="M1086.83 863.16c0,-0.01 0.18,-1.78 0.57,-4.92 1.4,-10.99 5.46,-38.56 13.56,-63.22 4.04,-12.32 9.11,-23.91 15.23,-32.26 3.06,-4.18 6.36,-7.53 9.88,-9.81 3.51,-2.28 7.21,-3.51 11.23,-3.51 2.31,0 4.74,0.41 7.33,1.3l1.36 -3.94c-2.98,-1.03 -5.89,-1.53 -8.69,-1.53 -5.6,0 -10.73,2.01 -15.22,5.38 -7.88,5.92 -14.08,15.88 -19.17,27.45 -15.19,34.71 -20.2,84.54 -20.23,84.64l4.15 0.42z"/>
  <path fill="#37498B" fill-rule="nonzero" d="M1195.41 756.3c-8.36,30.72 -27.53,52.25 -42.82,48.09 -15.3,-4.16 -20.92,-32.43 -12.57,-63.15 8.35,-30.72 27.53,-52.25 42.82,-48.09 15.3,4.16 20.92,32.44 12.57,63.15z"/>
  <path fill="#FEFEFE" fill-rule="nonzero" d="M1994.93 1592.85c0,19.06 -15.45,34.51 -34.51,34.51 -19.06,0 -34.52,-15.45 -34.52,-34.51 0,-19.06 15.46,-34.52 34.52,-34.52 19.06,0 34.51,15.46 34.51,34.52z"/>
  <path fill="#353B68" fill-rule="nonzero" d="M2101 1646.88l-35.45 -5.11c6.72,-14.41 10.56,-30.42 10.79,-47.31l30.33 0 7.7 0c-1.72,18.46 -6.33,36.09 -13.37,52.42z"/>
  <path fill="#2F3051" fill-rule="nonzero" d="M2123.46 1650.12l-22.46 -3.24c7.04,-16.33 11.65,-33.96 13.37,-52.42l18.79 0c-0.18,19.47 -3.58,38.18 -9.7,55.66z"/>
  <path fill="#426697" fill-rule="nonzero" d="M2065.55 1641.77l-48.07 -6.94c8.37,-11.34 13.42,-25.28 13.76,-40.37l45.1 0c-0.23,16.89 -4.07,32.9 -10.79,47.31z"/>
  <path fill="#395EA9" fill-rule="nonzero" d="M1787.15 1601.6l-0.69 -0.1c-0.08,-1.63 -0.13,-3.25 -0.17,-4.87 -0.02,-0.73 -0.03,-1.45 -0.04,-2.17l0.68 0c0.01,0.72 0.02,1.45 0.05,2.17 0.03,1.67 0.09,3.32 0.17,4.97z"/>
  <path fill="#353B68" fill-rule="nonzero" d="M1845.76 1610.06l-58.61 -8.46c-0.08,-1.65 -0.14,-3.3 -0.17,-4.97 -0.03,-0.72 -0.04,-1.45 -0.05,-2.17l57.57 0c0.08,5.29 0.5,10.5 1.26,15.6z"/>
  <path fill="#426697" fill-rule="nonzero" d="M1893.8 1616.99l-48.04 -6.93c-0.76,-5.1 -1.18,-10.31 -1.26,-15.6l45.1 0c0.18,7.89 1.65,15.47 4.2,22.53z"/>
  <path fill="#353B68" fill-rule="nonzero" d="M2017.48 1634.83l-53.23 -7.68c16.74,-1.84 29.87,-15.66 30.65,-32.69l36.34 0c-0.34,15.09 -5.39,29.03 -13.76,40.37zm-70.45 -10.16l-53.23 -7.68c-2.55,-7.06 -4.02,-14.64 -4.2,-22.53l36.34 0c0.63,13.62 9.14,25.18 21.09,30.21z"/>
  <path fill="#8499B8" fill-rule="nonzero" d="M1964.25 1627.15l-17.22 -2.48c-11.95,-5.03 -20.46,-16.59 -21.09,-30.21l68.96 0c-0.78,17.03 -13.91,30.85 -30.65,32.69z"/>
  <path fill="#ED6A5E" fill-rule="nonzero" d="M1774.77 1492.71l-18.15 0c31.34,-77.16 107.01,-131.58 195.46,-131.58 22.5,0 44.21,3.54 64.59,10.08l-14.57 14.86c-13.47,-2.71 -27.41,-4.12 -41.67,-4.12l0 0c-0.09,0 -0.18,0 -0.27,0 -80.16,0.1 -149.77,44.89 -185.39,110.76z"/>
  <path fill="#FF8E72" fill-rule="nonzero" d="M1756.76 1537.83l-12.8 0c0.66,-4.37 1.54,-8.7 2.5,-12.96 0.75,-3.2 1.58,-6.49 2.46,-9.66 1.96,-7.08 4.29,-14 7.04,-20.75 0.17,-0.58 0.42,-1.17 0.66,-1.75l18.15 0c-7.36,13.61 -13.27,28.12 -17.52,43.32 -0.17,0.6 -0.33,1.2 -0.49,1.8z"/>
  <path fill="#A63228" fill-rule="nonzero" d="M2171.25 1594.46c0,-0.53 0.04,-1.06 0.04,-1.59 0,-12.62 -1.11,-24.96 -3.29,-36.94 -6.75,-38.46 -23.95,-73.28 -48.5,-101.52 -38.64,-44.4 -95.6,-72.46 -159.07,-72.46 -96.83,0 -178.34,65.23 -203.18,154.08 -0.88,3.17 -1.7,6.46 -2.47,9.69 -3.46,15.15 -5.28,30.94 -5.28,47.15 0,0.53 0.02,1.06 0.02,1.59l421.73 0z"/>
  <path fill="#DE5A4D" fill-rule="nonzero" d="M2171.25 1594.46l-64.58 0c0,-0.53 0.04,-1.06 0.04,-1.59 0,-12.62 -1.12,-24.96 -3.29,-36.94 -6.75,-38.46 -23.96,-73.28 -48.5,-101.52 -31.97,-36.73 -76.49,-62.23 -126.84,-69.96 10.46,-1.61 21.17,-2.49 32.08,-2.5 0.09,0 0.18,0 0.27,0l0 0c63.47,0 120.43,28.06 159.07,72.46 24.55,28.24 41.75,63.06 48.5,101.52 2.18,11.98 3.29,24.32 3.29,36.94 0,0.53 -0.04,1.06 -0.04,1.59z"/>
  <path fill="#516FB4" fill-rule="nonzero" d="M1910.42 1077.08l547.9 0.76c9.21,0.01 16.68,-7.45 16.68,-16.65 0,-9.2 -7.46,-16.66 -16.65,-16.66l-507.67 0 -40.26 32.55z"/>
  <polygon fill="#F7B66E" fill-rule="nonzero" points="1983.3,983.3 2470.83,983.3 2470.83,786.52 1983.3,786.52 "/>
  <polygon fill="#F6AA61" fill-rule="nonzero" points="2470.83,832.64 2291.63,818.35 2291.63,786.52 2162.5,786.52 2162.5,808.05 1983.3,793.75 1983.3,786.52 2470.83,786.52 "/>
  <polygon fill="#F89D54" fill-rule="nonzero" points="1950.68,1044.89 2438.21,1044.89 2438.21,983.3 1950.68,983.3 "/>
  <polygon fill="#F89D54" fill-rule="nonzero" points="2438.21,1044.89 2438.21,983.3 1950.68,983.3 "/>
  <polygon fill="#F68F48" fill-rule="nonzero" points="1950.7,983.3 1950.68,983.3 "/>
  <polygon fill="#F68F48" fill-rule="nonzero" points="2438.21,995.83 1950.7,983.3 1950.7,983.3 2438.21,983.3 "/>
  <polygon fill="#F6904C" fill-rule="nonzero" points="2291.63,892.68 2273.43,881.89 2257.97,890.42 2242.52,881.89 2227.07,890.42 2211.61,881.89 2196.16,890.42 2180.71,881.89 2162.5,892.68 2162.5,808.05 2291.63,818.35 "/>
  <polygon fill="#F58842" fill-rule="nonzero" points="2291.63,818.35 2162.5,808.05 2162.5,786.52 2291.63,786.52 "/>
  <polygon fill="#F89D54" fill-rule="nonzero" points="1939.93,786.52 2427.47,786.52 2427.47,724.93 1939.93,724.93 "/>
  <path fill="#764D32" fill-rule="nonzero" d="M2215.78 724.93c-28.2,-0.32 -47.87,12.75 -62.15,26.67 -19.46,18.96 -32.7,40.52 -43.62,62.03 -10.33,20.31 -17.87,40.98 -23.73,62 -9.57,34.34 -21.68,68.38 -30.53,102.81 -4.84,18.86 -10.35,37.67 -14.85,56.56 -2.2,9.25 -13.84,35.45 -1.07,42.83l7.71 0.03c0,0 -1.49,2.4 -4.56,3.59 -2.84,1.1 -7.34,-0.07 -8.48,-0.64 -9.43,-4.76 -7.54,-17.38 -6.03,-25.71 2.84,-15.74 6.49,-31.3 10.64,-46.92 10.34,-38.91 21.5,-77.58 33.19,-116.34 14.99,-49.74 30.04,-103.6 76.59,-145.91 15.14,-13.75 37.74,-28.62 64.51,-23.31 2.9,0.57 4.81,2.31 4.81,2.31l-2.43 0z"/>
  <path fill="#764D32" fill-rule="nonzero" d="M2269.71 722.5c21.07,-0.46 29.35,10.98 32.71,24.91 3.34,13.87 6.34,27.77 9.16,41.69 7.06,34.67 12.79,69.46 18.14,104.26 8.65,56.32 17.68,112.94 20.73,169.52 0.23,4.3 2.25,11.13 -0.3,15.3 -5.59,9.15 -35.42,5.54 -44.12,-0.34l12.86 0.01c0,0 18.91,3.02 22.72,-1.32 0.54,-0.62 0.2,-3.23 0.23,-4.3 0.12,-5.83 -0.4,-11.68 -0.83,-17.5 -1.56,-20.95 -4,-41.88 -6.55,-62.79 -7.03,-57.59 -15.54,-115.12 -25.97,-172.49 -2.85,-15.7 -5.8,-31.38 -9.04,-47.05 -1.48,-7.15 -3.03,-14.31 -4.67,-21.45 -2.75,-12.04 -6.2,-26.4 -30.82,-26.02l-3.32 0c0,0 -0.51,-2.23 9.07,-2.43z"/>
  <path fill="#4366AE" fill-rule="nonzero" d="M1342.01 1332.64l-65.62 17.71 -18.56 -182.07c-6.09,-56.23 30.01,-101.14 77.63,-131.67 116.02,-74.37 238.87,-73.6 274.57,-72.83 5.2,0.12 8.56,0.23 9.76,0.11 3.16,10.78 6.32,21.57 9.47,32.36 6.61,22.55 13.31,45.08 19.82,67.67 1.43,4.95 4.15,11.09 -1.4,14.13 -3.75,2.05 -11.03,1.55 -15.28,2.2 -4.95,0.74 -9.88,1.57 -14.8,2.48 -10.24,1.89 -20.43,4.14 -30.51,6.75 -6.04,1.55 -26.56,11.88 -30.48,6.26 -9.01,-12.89 -22.81,-17.46 -38.22,-16.3 -18.97,1.43 -38.19,6.7 -56.39,11.99 -34.99,10.17 -68.92,25.14 -98.35,46.84 -9.23,6.8 -14.91,17.4 -15.34,28.85l-6.3 165.52z"/>
  <path fill="#4E73B7" fill-rule="nonzero" d="M1350.63 1155.51c2.25,-6.05 6.05,-11.47 11.07,-15.7 -5.02,4.24 -8.82,9.66 -11.07,15.7zm140.28 -71.75c9.13,-2.05 18.34,-3.63 27.48,-4.32 1.53,-0.11 3.04,-0.17 4.53,-0.17 5.57,0 10.88,0.82 15.75,2.58 -4.87,-1.75 -10.17,-2.57 -15.72,-2.57 -1.51,0 -3.03,0.06 -4.57,0.18 -9.15,0.68 -18.35,2.26 -27.47,4.3z"/>
  <path fill="#415BA7" fill-rule="nonzero" d="M1334.83 1334.54l-14.5 -142.29c-6.08,-56.25 30,-101.17 77.63,-131.67 62.77,-40.25 127.55,-58.5 179.44,-66.65l3.56 33.03 0 0c-12.69,15.73 -25.66,34.6 -37.61,56.95 -1.5,-0.79 -3.07,-1.47 -4.68,-2.06 -4.87,-1.76 -10.18,-2.58 -15.75,-2.58 -1.49,0 -3,0.06 -4.53,0.17 -9.14,0.69 -18.35,2.27 -27.48,4.32 -9.78,2.19 -19.48,4.92 -28.91,7.66 -35,10.16 -68.92,25.16 -98.33,46.83 -0.68,0.5 -1.34,1.02 -1.97,1.56 -5.02,4.23 -8.82,9.65 -11.07,15.7 -1.38,3.68 -2.18,7.59 -2.34,11.61l-6.29 165.51 -7.17 1.91z"/>
  <path fill="#4366AE" fill-rule="nonzero" d="M1785.42 946.33l0 47.42c0,47.75 -44.09,92.5 -91.8,104.71 -8.29,2.16 -16.7,3.29 -25.04,3.29l-46.45 -0.63 -33.25 -0.41 -7.92 -73.75 -11.17 -103.71 215.63 23.08z"/>
  <path fill="#4366AE" fill-rule="nonzero" d="M1744.71 1057.79c-16.46,13.96 -34.04,26.96 -51.09,40.67 -8.54,6.83 -16.95,13.87 -24.99,21.29 -12.17,11.29 -23.55,23.5 -32.88,37.21 -10.25,15 -15.96,31.54 -20.54,49.04 -3.67,14.04 -6.38,28.33 -9.21,42.54 -7.58,38.46 -10.37,77.71 -10.37,116.84 0.04,40.08 3.04,80.08 7.16,119.91 0.21,1.88 0.88,6.96 1.88,14.04 4.41,31.71 14.7,103.34 12.21,104.17l-68.46 23.08c-33.88,-159.46 -85.21,-345.2 -24.46,-500.54 16.33,-41.71 37,-74.29 57,-99.08 36.25,-45.04 70.29,-64.46 72,-66.33l38.95 34.54c9.05,7 18.55,13.79 27.96,20.7 10.05,7.46 20.01,15.09 29.01,23.42 9.04,8.38 3.79,11.79 -4.17,18.5z"/>
  <path fill="#415BA7" fill-rule="nonzero" d="M1693.62 1098.46c17.05,-13.71 34.63,-26.71 51.09,-40.67 7.96,-6.71 13.21,-10.12 4.17,-18.5 -9,-8.33 -18.96,-15.96 -29.01,-23.42 0.03,-0.01 0.06,-0.03 0.08,-0.04 0.13,0.01 0.26,0.03 0.38,0.04 8.3,1.13 16.75,2.09 25.21,2.71 2.34,0.17 4.71,0.34 7.04,0.42l0 0c3.75,0.21 7.5,0.29 11.25,0.29 2.21,0 4.46,-0.04 6.67,-0.12 3.21,-0.13 5.75,-0.67 7.75,-1.54 2.02,-0.9 3.5,-2.15 4.59,-3.69 -6.15,24.19 -22.76,46.41 -44.05,62.43 -13.64,10.27 -29.2,18 -45.17,22.09z"/>
  <path fill="#415BA7" fill-rule="nonzero" d="M1602.79 1504.17c-81.62,-194.72 -44.29,-322.25 19.34,-403.05 30,-38.04 65.79,-65.75 97.74,-85.25l0 0c10.05,7.46 20.01,15.09 29.01,23.42 9.04,8.38 3.79,11.79 -4.17,18.5 -16.46,13.96 -34.04,26.96 -51.09,40.67l0 0c-8.54,6.83 -16.95,13.87 -24.99,21.29 -3.31,3.07 -6.56,6.2 -9.72,9.42 -6.35,6.45 -12.37,13.23 -17.85,20.42 -1.83,2.41 -3.61,4.86 -5.31,7.37 -10.25,15 -15.96,31.54 -20.54,49.04 -2.01,7.67 -3.72,15.4 -5.33,23.17 -1.33,6.45 -2.59,12.92 -3.88,19.37 -7.58,38.46 -10.37,77.71 -10.37,116.84l0 0c0.04,40.08 3.04,80.08 7.16,119.91 0.21,1.88 0.88,6.96 1.88,14.04l-1.88 4.84z"/>
  <polygon fill="#FAD1DA" fill-rule="nonzero" points="1341.49,1435.76 1292.01,1435.76 1285.24,1349.3 1340.71,1348.53 "/>
  <polygon fill="#4979BC" fill-rule="nonzero" points="1347.74,1358.68 1274.82,1369.1 1271.35,1338.54 1346.35,1319.27 "/>
  <polygon fill="#FAD1DA" fill-rule="nonzero" points="1623.96,1731.59 1575.93,1736.16 1564.06,1653.12 1614.58,1637.85 "/>
  <polygon fill="#4979BC" fill-rule="nonzero" points="1630.21,1644.27 1603.09,1648.97 1551.04,1657.99 1542.71,1622.22 1624.48,1597.92 "/>
  <path fill="#FAD1DA" fill-rule="nonzero" d="M1630.84 604.55c0,0 8.18,37.45 -6.93,65.47 -12.25,22.73 9.2,42.25 32.54,43.56 19.93,1.11 53.47,-4.06 52.43,-24 -3.67,-70.4 13.08,-128.84 13.08,-128.84l-91.12 43.81z"/>
  <path fill="#FAD1DA" fill-rule="nonzero" d="M1592.01 678.12c0,0 29.62,-6.57 35.34,-14.72 12.25,-17.45 80.1,-22.83 80.65,-4.2 0.42,13.98 35.7,13.28 35.7,13.28 0,0 -29.65,58.32 -90.8,51.99 -35.72,-3.69 -60.89,-46.35 -60.89,-46.35z"/>
  <path fill="#F8BCC9" fill-rule="nonzero" d="M1625.78 666.21c13.52,-6.02 58.9,-27.98 59.69,-51.87 0.4,-12.37 -39.99,-10.54 -54.57,-9.48 0.68,3.35 6.72,35.34 -5.12,61.35z"/>
  <path fill="#FAD1DA" fill-rule="nonzero" d="M1767.3 569.93c-4.28,-1.85 -7.77,-4.86 -10.45,-8.6 -22.15,41.17 -62.7,64.72 -107.67,55.43 -44.58,-9.22 -65.71,-45.38 -71.45,-91.95 -1.74,-14.01 -2.11,-29.01 -1.27,-44.47 0.47,-8.93 1.52,-17.21 3.09,-24.79 1.56,-7.66 3.63,-14.67 6.13,-21.03 19.42,-48.97 65.63,-60.8 111.7,-51.29 31.26,6.47 54.13,27.44 66.43,55.51 8.28,18.76 11.8,40.69 10.03,63.6 7.51,-3.82 15.86,-4.58 23.26,-1.38 15.25,6.61 -14.55,75.58 -29.8,68.97z"/>
  <path fill="#F8BCC9" fill-rule="nonzero" d="M1766.04 546.58c1.44,-3.34 3.74,-6.52 7.19,-8.54 3.38,-1.98 8,-2.7 11.82,-0.55 3.7,2.21 5.57,6.72 4.36,10.57 -0.61,1.9 -1.94,3.45 -3.63,4.46 -1.67,0.99 -4,1.4 -6.01,0.43 -4.08,-1.85 -5.59,-7.13 -4.11,-11.1 1.34,-4.04 4.06,-6.95 6.89,-9.39 5.85,-4.81 13.45,-7.45 20.75,-6.93l0.05 0.42c-6.88,2.1 -12.92,5.41 -17.91,9.88 -2.47,2.24 -4.97,4.59 -6.09,7.33 -0.55,1.39 -0.76,2.73 -0.51,4.15 0.26,1.39 0.88,2.8 2.03,3.64 1.13,0.82 2.78,1.03 4.25,0.31 1.44,-0.65 2.62,-2.03 2.99,-3.57 0.7,-3.24 -2,-6.21 -4.61,-7.1 -2.66,-1.05 -5.88,-0.87 -8.81,0.34 -2.95,1.22 -5.67,3.42 -8.31,5.89l-0.34 -0.24z"/>
  <path fill="#74362E" fill-rule="nonzero" d="M1681.92 563.08c-1.23,10.56 -18.07,26.31 -36.32,24.18 -18.25,-2.13 -31.01,-21.33 -29.77,-31.89 1.22,-10.57 15.98,-8.49 34.24,-6.36 18.25,2.13 33.08,3.51 31.85,14.07z"/>
  <path fill="#EF4737" fill-rule="nonzero" d="M1618.87 567.73c7.26,-3.89 18.32,-4.76 29.78,-1.65 9.6,2.61 17.55,7.5 22.4,13.14 -6.74,5.37 -15.9,9.15 -25.45,8.04 -12.23,-1.43 -21.99,-10.51 -26.73,-19.53z"/>
  <path fill="#FEFEFE" fill-rule="nonzero" d="M1681.97 561.34c-7.87,2.52 -20.48,3 -34.34,0.81 -12.76,-2.01 -23.81,-5.84 -30.72,-10.19 3.9,-6.63 17.19,-4.81 33.16,-2.95 17.19,2 31.36,3.35 31.9,12.33z"/>
  <path fill="#F8BCC9" fill-rule="nonzero" d="M1653.15 503.67c0.26,2.52 0.15,5.19 -0.57,7.7 -0.69,2.5 -1.7,4.98 -3.1,7.18 -1.33,2.26 -3.02,4.28 -4.8,6.18 -1.88,1.83 -3.78,3.51 -6.11,4.95l0.03 -3.06c1.98,1.54 3.75,3.22 5.37,5.12 0.81,0.95 1.57,1.95 2.19,3.07 0.57,1.08 1.2,2.46 0.74,3.68 -0.14,-1.23 -1.07,-2 -1.88,-2.79 -0.84,-0.78 -1.8,-1.46 -2.72,-2.16 -1.9,-1.35 -3.89,-2.64 -5.81,-3.88l-2.07 -1.33 2.09 -1.73c1.74,-1.44 3.59,-3.07 5.2,-4.79 1.69,-1.66 3.18,-3.51 4.66,-5.36 1.45,-1.88 2.69,-3.89 3.86,-5.99 1.17,-2.11 2.02,-4.38 2.92,-6.79z"/>
  <path fill="#73302E" fill-rule="nonzero" d="M1601.45 491.3l-0.3 -0.43 0.3 0.43 0 0 -0.3 -0.43 0.3 0.43c0.07,-0.05 1.57,-1.1 3.82,-2.1 2.24,-1.01 5.21,-1.95 8.17,-1.94 2.27,0.01 4.51,0.51 6.71,1.89 2.19,1.4 4.43,3.74 6.43,7.76 0.77,1.55 2.65,2.18 4.2,1.41 1.55,-0.77 2.18,-2.66 1.41,-4.2 -2.39,-4.83 -5.39,-8.17 -8.69,-10.26 -3.3,-2.1 -6.84,-2.87 -10.06,-2.86 -4.36,0 -8.2,1.32 -10.99,2.59 -2.79,1.28 -4.55,2.54 -4.66,2.62 -1.41,1.02 -1.72,2.97 -0.71,4.38 1.01,1.4 2.97,1.72 4.37,0.71z"/>
  <path fill="#73302E" fill-rule="nonzero" d="M1691.27 506.88l-0.31 -0.43 0.3 0.43 0.01 0 -0.31 -0.43 0.3 0.43c0.07,-0.06 1.58,-1.11 3.82,-2.1 2.25,-1.01 5.22,-1.95 8.17,-1.94 2.28,0.01 4.51,0.51 6.71,1.89 2.19,1.4 4.42,3.74 6.43,7.76 0.77,1.55 2.66,2.18 4.21,1.41 1.54,-0.78 2.18,-2.66 1.4,-4.21 -2.4,-4.82 -5.38,-8.17 -8.69,-10.25 -3.3,-2.1 -6.83,-2.87 -10.06,-2.87 -4.36,0.01 -8.2,1.33 -10.99,2.6 -2.79,1.28 -4.54,2.54 -4.66,2.62 -1.4,1.01 -1.72,2.97 -0.71,4.38 1.01,1.4 2.97,1.72 4.38,0.71z"/>
  <path fill="#F8BCC9" fill-rule="nonzero" d="M1763.81 438.74c-5.58,5.88 -14.66,122.11 -16.8,124.11 14.79,-90.28 -183.19,-103.49 -161.33,-128.33 19.42,-48.97 65.63,-60.8 111.7,-51.29 31.26,6.47 54.13,27.44 66.43,55.51z"/>
  <path fill="#5A312D" fill-rule="nonzero" d="M1759.4 575.28c2.11,3.43 -14.35,20.3 -36.35,32.28 -21.99,11.99 -46.76,11.59 -46.76,11.59 1.22,0.02 3.39,-1.58 4.44,-2.09 4.04,-1.96 8.02,-4.03 11.96,-6.17 9.49,-5.16 19.53,-10.3 27.55,-17.82 8,-7.5 12.96,-17.62 21.01,-25.06 7.55,-6.96 13.97,0.46 18.15,7.27z"/>
  <path fill="#FAD1DA" fill-rule="nonzero" d="M1236.79 885.37c16.82,18.6 -19.9,33.51 -33.01,37.17 -19.76,5.51 -18.99,3.89 -30.5,-9.8 -11.5,-13.7 -11.15,-25.59 -0.09,-32.79 11.06,-7.19 51.54,-7.9 63.6,5.42z"/>
  <path fill="#FAD1DA" fill-rule="nonzero" d="M1184.64 892.89c-3.07,3.21 -14.13,10.94 -14.13,10.94 -3.13,2.19 -7.83,1.59 -10.46,-1.33 -2.62,-2.91 -2.22,-7.08 0.9,-9.26 0,0 11.77,-7.25 15.95,-9.24 3.65,-1.74 6.79,-2.75 9.42,0.17 2.62,2.91 1.45,5.45 -1.68,8.72z"/>
  <path fill="#F9BAB8" fill-rule="nonzero" d="M1165.1 905.06c-0.73,-0.1 -1.45,-0.29 -2.14,-0.57 -0.22,-2.36 0.93,-4.75 3.29,-6.17 0,0 13.05,-6.9 17.63,-8.75 1.33,-0.54 2.58,-0.98 3.77,-1.24 -0.15,0.59 -0.41,1.18 -0.78,1.79 -0.7,0.28 -1.41,0.61 -2.15,0.97 -4.41,2.15 -16.84,9.87 -16.84,9.87 -1.52,1.06 -2.46,2.53 -2.78,4.1z"/>
  <path fill="#FAD1DA" fill-rule="nonzero" d="M1192.44 899.99c-3.29,3.36 -15.01,11.56 -15.01,11.56 -3.31,2.32 -8.17,1.83 -10.8,-1.09 -2.62,-2.91 -2.06,-7.19 1.25,-9.5 0,0 12.43,-7.72 16.84,-9.87 3.83,-1.86 7.12,-2.98 9.75,-0.06 2.63,2.91 1.33,5.55 -2.03,8.96z"/>
  <path fill="#F9BAB8" fill-rule="nonzero" d="M1171.15 912.86c-0.43,-0.08 -0.86,-0.19 -1.27,-0.33 -0.93,-2.75 0.17,-5.84 3.01,-7.53 0,0 13.06,-6.88 17.64,-8.72 1.91,-0.77 3.66,-1.36 5.24,-1.44 -0.03,0.22 -0.09,0.44 -0.16,0.67 -1.47,0.25 -3.05,0.92 -4.73,1.74 -4.42,2.15 -16.85,9.88 -16.85,9.88 -2.04,1.42 -3.03,3.59 -2.88,5.73z"/>
  <path fill="#FAD1DA" fill-rule="nonzero" d="M1198.6 906.16c-3.3,3.36 -15.02,11.56 -15.02,11.56 -3.31,2.31 -8.16,1.82 -10.79,-1.09 -2.63,-2.92 -2.07,-7.19 1.24,-9.5 0,0 12.43,-7.73 16.85,-9.88 3.83,-1.86 7.12,-2.97 9.75,-0.06 2.62,2.91 1.32,5.55 -2.03,8.97z"/>
  <path fill="#F9BAB8" fill-rule="nonzero" d="M1178.84 919.15c-0.1,0 -0.19,0 -0.29,0 -1.3,-2.7 -0.09,-5.9 2.9,-7.3 0,0 11.71,-4.78 15.77,-5.98 0.75,-0.22 1.47,-0.41 2.16,-0.56l-0.78 0.85 0 0c-3.3,3.36 -15.02,11.56 -15.02,11.56l0 0c-1.4,0.98 -3.07,1.43 -4.74,1.43z"/>
  <path fill="#FAD1DA" fill-rule="nonzero" d="M1203.33 915.07c-3.16,2.54 -13.98,8.41 -13.98,8.41 -3.05,1.66 -7.08,0.82 -8.97,-1.87 -1.88,-2.69 -0.91,-6.24 2.14,-7.89 0,0 11.36,-5.41 15.32,-6.83 3.44,-1.24 6.34,-1.88 8.22,0.81 1.88,2.68 0.48,4.79 -2.73,7.37z"/>
  <path fill="#4D7FB8" fill-rule="nonzero" d="M1168.53 883.96c-0.18,-0.29 -0.34,-0.61 -0.48,-0.95 -0.33,-0.8 0.87,-0.72 3.44,-1.85 -1.13,0.88 -2.12,1.81 -2.96,2.8zm7.75 -5.56c6.17,-3.74 26.41,-7.75 26.41,-7.75 2.11,1.09 3.84,2.68 5.21,4.52 -2.61,-0.2 -5.25,-0.3 -7.85,-0.3 -9.36,0 -18.21,1.29 -23.77,3.53z"/>
  <path fill="#F8B0A9" fill-rule="nonzero" d="M1171.88 886.72c-1.41,-0.59 -2.57,-1.48 -3.35,-2.76 0.84,-0.99 1.83,-1.92 2.96,-2.8 1.16,-0.51 2.59,-1.26 4.29,-2.44 0.16,-0.11 0.32,-0.22 0.5,-0.32 5.56,-2.24 14.41,-3.53 23.77,-3.53 2.6,0 5.24,0.1 7.85,0.3 1.34,1.79 2.33,3.82 2.96,5.83 0.48,1.52 0.62,3.35 -0.64,4.45 -0.39,0.34 -1.01,0.48 -1.74,0.48 -1.74,0 -4.08,-0.77 -5.29,-1.25 -0.51,-0.2 -1.19,-0.28 -2.01,-0.28 -2.52,0 -6.35,0.82 -10.55,1.65 -0.96,0.19 -1.95,0.38 -2.95,0.56 -0.17,-0.8 -0.61,-1.61 -1.36,-2.44 -1.2,-1.33 -2.51,-1.84 -3.92,-1.84 -1.68,0 -3.51,0.72 -5.5,1.67 -1.2,0.57 -3.03,1.57 -5.02,2.72z"/>
  <path fill="#F8B0A9" fill-rule="nonzero" d="M1177.94 887.7c-2.28,0 -4.36,-0.27 -6.06,-0.98 1.99,-1.15 3.82,-2.15 5.02,-2.72 1.99,-0.95 3.82,-1.67 5.5,-1.67 1.41,0 2.72,0.51 3.92,1.84 0.75,0.83 1.19,1.64 1.36,2.44 -3.31,0.6 -6.7,1.09 -9.74,1.09z"/>
  <path fill="#FAD1DA" fill-rule="nonzero" d="M1203.07 883.84c-5.52,-2.17 -30.81,7.53 -35.02,-0.83 -0.57,-1.12 1.7,-2.42 7.17,-6.24 4.38,-3.06 18.86,-7.04 24.65,-7.6 6.37,-0.6 21.39,7.63 22.58,8.55 2.98,2.29 -7.53,3.78 -6.47,7.13 0.48,1.51 1.75,4.79 0.49,5.89 -1.34,1.16 -11.69,-6.23 -13.4,-6.9z"/>
  <path fill="#FF8E72" fill-rule="nonzero" d="M1602.08 670.31c0.55,17.77 -11.64,37.98 -15.75,55.02l-2.66 11.13 -15.46 64.21c-7.34,5.75 -23.46,16.25 -40.83,27.16 -8.21,5.21 -16.71,10.46 -24.63,15.38 -19.92,12.25 -255.18,73.98 -274.62,69.29l-9.38 -37.5c34.89,-15.19 69.79,-30.38 104.68,-45.57 22.26,-9.68 44.99,-18.66 66.06,-30.8 32.31,-18.61 59.86,-45.65 89.21,-68.46 17.3,-13.44 34.17,-27.67 53.22,-38.63 10.18,-5.84 21.14,-10.15 32.43,-13.27 9.29,-2.57 27.45,-7.05 37.73,-7.96z"/>
  <path fill="#DE5A4D" fill-rule="nonzero" d="M1527.38 827.83c0.16,-50.5 26.5,-111.5 26.5,-111.5l0 0c-7,44.28 -6.63,62.87 -2.01,95.77 -7.18,4.76 -15.68,10.2 -24.49,15.73z"/>
  <path fill="#ED6A5E" fill-rule="nonzero" d="M1798.33 732.75l-0.04 38.37 -0.04 56.13 0 11.71 -0.04 43.12c-0.67,6.09 -1.33,12.17 -2,18.25 -0.88,8.17 -1.79,16.38 -2.67,24.54 -2.25,20.92 -4.54,41.8 -6.79,62.71 -1,9.29 -0.08,18.13 -2.67,24.13 -1.12,2.58 -2.91,4.62 -5.83,5.92 -2,0.87 -4.54,1.41 -7.75,1.54 -2.21,0.08 -4.46,0.12 -6.67,0.12 -3.75,0 -7.5,-0.08 -11.25,-0.29 -2.33,-0.08 -4.7,-0.25 -7.04,-0.42 -8.46,-0.62 -16.91,-1.58 -25.21,-2.71 -32.45,-4.33 -64.37,-12.87 -94.62,-25.37 -12.63,-5.21 -24.96,-11.08 -36.92,-17.67 -12.21,-6.71 -20.66,-8.66 -21.25,-22.87 -0.96,-22.96 -0.25,-46.46 -4.16,-69.17 -3.8,-21.67 -5.55,-29.71 -8.75,-50.25 -1.05,-6.71 -1.96,-12.79 -2.76,-18.41 -0.6,-4.32 -1.13,-8.39 -1.59,-12.3 -3,-25.94 -2.49,-45.01 3.6,-83.5l0 -0.04 45.66 -45.79 25.08 -4.5c0,0 5.76,21.21 34.09,23.25 34.71,2.5 48.79,-19.08 50.83,-22.62l0.25 -0.46 0.04 -0.05 0.09 0.09 88.41 66.54z"/>
  <path fill="#DE5A4D" fill-rule="nonzero" d="M1763.83 1019.29c-3.75,0 -7.5,-0.08 -11.25,-0.29 4.92,-11.11 7.19,-30.87 7.79,-54.66 -18.77,-20.39 -63.65,-28.86 -84.67,-36.22 10.93,-39.58 21.44,-41.53 21.44,-41.53 0,0 0.71,0.03 1.97,0.03 10.09,0 55.46,-1.96 54.54,-37.14 -0.13,-4.67 0.07,-6.75 0.5,-6.75 0.2,0 0.44,0.42 0.72,1.21 -4.14,-46.17 -9.04,-82.81 -9.04,-82.81l52.46 9.99 -0.04 56.13 0 11.71 -0.04 43.12c-0.67,6.09 -1.33,12.17 -2,18.25 -0.88,8.17 -1.79,16.38 -2.67,24.54 -2.25,20.92 -4.54,41.8 -6.79,62.71 -1,9.29 -0.08,18.13 -2.67,24.13 -1.12,2.58 -2.91,4.62 -5.83,5.92 -2,0.87 -4.54,1.41 -7.75,1.54 -2.21,0.08 -4.46,0.12 -6.67,0.12z"/>
  <path fill="#FF8E72" fill-rule="nonzero" d="M1869.1 908.68c-3.18,-31.86 -6.26,-67.83 -10.84,-99.54 -3.66,-25.39 -7.21,-52.09 -18.59,-75.61 -13.01,-26.87 -35.42,-41.2 -62.5,-51.91 -21.7,-8.59 -44.67,-12.65 -67.74,-15.5 7.41,24.96 14.82,49.92 22.23,74.88 6.39,21.51 17.43,41.15 27,61.33 7.83,16.51 14.98,33.34 21.59,50.37 1.48,3.8 15.3,47.55 12.8,47.3l76.05 8.68z"/>
  <path fill="#FAD1DA" fill-rule="nonzero" d="M1658.58 887.4c-4.43,1.32 -18.06,2.6 -18.06,2.6 -3.84,0.36 -7.3,-2.68 -7.68,-6.76 -0.38,-4.08 2.46,-7.71 6.31,-8.07 0,0 13.91,-0.46 18.51,-0.08 4,0.34 7.16,1.07 7.53,5.15 0.38,4.08 -2.1,5.8 -6.61,7.16z"/>
  <path fill="#FAD1DA" fill-rule="nonzero" d="M1634 886.61c1.4,2.23 3.85,3.64 6.52,3.39 0,0 13.63,-1.28 18.06,-2.6 2.29,-0.69 4.05,-1.48 5.19,-2.62 -1.12,-0.39 -2.4,-0.65 -3.81,-0.85 -4.83,-0.71 -19.57,-1.26 -19.57,-1.26 -2.78,0.05 -5.15,1.65 -6.39,3.94z"/>
  <path fill="#FAD1DA" fill-rule="nonzero" d="M1660.64 898.08c-4.7,1.35 -19.15,2.71 -19.15,2.71 -4.08,0.38 -7.72,-2.65 -8.1,-6.73 -0.38,-4.07 2.65,-7.72 6.73,-8.1 0,0 14.74,-0.54 19.61,-0.18 4.24,0.31 7.57,1.02 7.95,5.1 0.38,4.08 -2.26,5.82 -7.04,7.2z"/>
  <path fill="#FAD1DA" fill-rule="nonzero" d="M1634.78 897.68c1.49,2.08 4,3.36 6.71,3.11 0,0 14.45,-1.36 19.15,-2.71 2.66,-0.77 4.62,-1.66 5.81,-2.99 -1.34,-0.76 -3.12,-1.15 -5.12,-1.45 -4.83,-0.72 -19.58,-1.3 -19.58,-1.3 -3.31,0.06 -6.07,2.31 -6.97,5.34z"/>
  <path fill="#FAD1DA" fill-rule="nonzero" d="M1661.92 907.02c-4.7,1.36 -19.15,2.71 -19.15,2.71 -4.07,0.38 -7.72,-2.64 -8.1,-6.72 -0.38,-4.08 2.65,-7.73 6.73,-8.1 0,0 14.74,-0.54 19.61,-0.19 4.24,0.31 7.58,1.03 7.96,5.11 0.38,4.08 -2.27,5.82 -7.05,7.19z"/>
  <path fill="#FAD1DA" fill-rule="nonzero" d="M1637.83 908.38c1.4,0.99 3.12,1.52 4.94,1.35 0,0 14.45,-1.35 19.15,-2.71 0.41,-0.11 0.77,-0.24 1.15,-0.36 -0.66,-0.23 -1.35,-0.44 -2.09,-0.63 -4.02,-1.04 -16.41,-2.84 -16.41,-2.84 -3.27,-0.29 -6.17,2.01 -6.74,5.19z"/>
  <path fill="#FAD1DA" fill-rule="nonzero" d="M1660.39 917.75c-4.09,0.67 -16.4,0.36 -16.4,0.36 -3.47,-0.09 -6.24,-3.01 -6.15,-6.49 0.09,-3.47 3.01,-6.24 6.49,-6.15 0,0 12.47,1.04 16.53,1.83 3.54,0.68 6.28,1.62 6.19,5.1 -0.09,3.47 -2.49,4.67 -6.66,5.35z"/>
  <path fill="#FAD1DA" fill-rule="nonzero" d="M1687.03 878.92c-3.88,-4.38 -1.01,-31.6 -11.08,-32.1 -4.33,-0.2 -2.04,2.38 -4.46,8.71 -1.93,5.06 -1.9,19.76 -0.79,25.29 1.23,6.09 14.25,17.25 15.56,18.04 3.27,2 1.78,-8.21 5.6,-8.34 1.72,-0.06 4.68,0.01 5.47,-1.52 0.84,-1.62 -9.09,-8.72 -10.3,-10.08z"/>
  <path fill="#FF8E72" fill-rule="nonzero" d="M1869.53 911.85c-0.21,19.05 -37.95,33.98 -85.5,33.98 -47.56,0 -98.61,-18.75 -98.61,-18.75l11.85 -39.19c0,0 55.53,-1.78 86.06,-1.78 47.56,0 86.51,-0.95 86.2,25.74z"/>
  <path fill="#FAD1DA" fill-rule="nonzero" d="M1705.43 908.09c-6.25,25.42 -36.32,20.36 -49.17,16.78 -19.35,-5.38 -17.75,-6.46 -18.84,-25.19 -1.1,-18.73 -3.16,-24.25 10.15,-25.03 13.31,-0.78 64.23,7.47 57.86,33.44z"/>
  <path fill="#37498B" fill-rule="nonzero" d="M1259.17 928.07l-131.1 0c-10.27,0 -18.61,-8.33 -18.61,-18.61 0,-10.28 8.34,-18.61 18.61,-18.61l131.1 0c10.28,0 18.61,8.33 18.61,18.61 0,10.28 -8.33,18.61 -18.61,18.61z"/>
  <path fill="#F79333" fill-rule="nonzero" d="M1345.67 1401.12l0 88.55 -184.04 0c0,-5.54 0.66,-10.92 1.95,-16.09 3.04,-12.25 9.46,-23.16 18.25,-31.79 9.67,-9.5 22.21,-16.16 36.21,-18.66 1.34,-0.3 2.71,-0.5 4.09,-0.63 2.79,-0.38 5.62,-0.54 8.5,-0.54l5.08 0 8.75 -0.04 4.25 0 8.37 -0.04 16.13 0 10.29 -0.05 0 -20.71 62.17 0z"/>
  <path fill="#6B4D30" fill-rule="nonzero" d="M1220.54 1438.67c-0.29,0.83 -1.08,1.33 -1.91,1.33l-0.75 -0.12c-1.09,-0.42 -1.63,-1.63 -1.21,-2.67 1.66,-4.46 2.08,-9.38 1.37,-14.08 1.34,-0.3 2.71,-0.5 4.09,-0.63 0.83,5.42 0.33,11.04 -1.59,16.17z"/>
  <path fill="#6B4D30" fill-rule="nonzero" d="M1234.29 1439.33c-0.33,0.84 -1.12,1.38 -1.96,1.38l-0.75 -0.13c-1.08,-0.41 -1.62,-1.62 -1.2,-2.71 1.87,-5.04 2.2,-10.66 1.04,-15.91l4.29 0c1.08,5.79 0.67,11.87 -1.42,17.37z"/>
  <path fill="#6B4D30" fill-rule="nonzero" d="M1247.29 1439.33c-0.29,0.84 -1.12,1.38 -1.96,1.38l-0.7 -0.13c-1.09,-0.41 -1.63,-1.62 -1.25,-2.71 1.91,-5.04 2.2,-10.66 1.08,-15.95l4.25 0c1.08,5.79 0.67,11.91 -1.42,17.41z"/>
  <path fill="#6B4D30" fill-rule="nonzero" d="M1260.12 1440.21c-0.29,0.83 -1.08,1.37 -1.91,1.37l-0.75 -0.16c-1.09,-0.38 -1.63,-1.59 -1.21,-2.67 2,-5.38 2.21,-11.33 0.83,-16.87l4.25 0c1.34,6.08 0.96,12.54 -1.21,18.33z"/>
  <path fill="#6B4D30" fill-rule="nonzero" d="M1272.12 1440.75c-0.33,0.83 -1.12,1.33 -1.95,1.33l-0.75 -0.12c-1.05,-0.42 -1.59,-1.63 -1.21,-2.67 2.08,-5.54 2.25,-11.71 0.75,-17.41l4.25 0c1.46,6.24 1.16,12.87 -1.09,18.87z"/>
  <path fill="#E58638" fill-rule="nonzero" d="M1345.67 1404.79l0 84.88 -184.04 0c0,-5.54 0.66,-10.92 1.95,-16.09 30.25,-0.75 106.34,3.65 137.13,-1.7 23.94,-4.17 37.96,-40.8 44.96,-67.09z"/>
  <path fill="#F79333" fill-rule="nonzero" d="M1626.22 1692.45l0 88.54 -184.04 0c0,-5.55 0.67,-10.92 1.96,-16.09 3.04,-12.24 9.46,-23.16 18.25,-31.79 9.66,-9.5 22.21,-16.17 36.21,-18.66 1.33,-0.3 2.7,-0.5 4.08,-0.63 2.79,-0.37 5.62,-0.54 8.5,-0.54l5.08 0 8.75 -0.04 4.25 0 8.38 -0.04 16.12 0 10.3 -0.05 0 -20.7 62.16 0z"/>
  <path fill="#6B4D30" fill-rule="nonzero" d="M1501.1 1729.98c-0.3,0.84 -1.09,1.34 -1.92,1.34l-0.75 -0.13c-1.08,-0.41 -1.63,-1.62 -1.21,-2.66 1.67,-4.46 2.08,-9.38 1.38,-14.08 1.33,-0.3 2.7,-0.5 4.08,-0.63 0.83,5.41 0.33,11.04 -1.58,16.16z"/>
  <path fill="#6B4D30" fill-rule="nonzero" d="M1514.85 1730.65c-0.34,0.84 -1.13,1.38 -1.96,1.38l-0.75 -0.13c-1.09,-0.41 -1.63,-1.62 -1.21,-2.7 1.87,-5.05 2.21,-10.67 1.04,-15.92l4.29 0c1.09,5.79 0.67,11.87 -1.41,17.37z"/>
  <path fill="#6B4D30" fill-rule="nonzero" d="M1527.85 1730.65c-0.3,0.84 -1.12,1.38 -1.96,1.38l-0.71 -0.13c-1.08,-0.41 -1.63,-1.62 -1.25,-2.7 1.92,-5.05 2.21,-10.67 1.08,-15.96l4.25 0c1.09,5.79 0.67,11.91 -1.41,17.41z"/>
  <path fill="#6B4D30" fill-rule="nonzero" d="M1540.68 1731.53c-0.29,0.83 -1.08,1.37 -1.92,1.37l-0.74 -0.17c-1.09,-0.37 -1.63,-1.58 -1.22,-2.66 2,-5.37 2.21,-11.33 0.84,-16.87l4.25 0c1.34,6.08 0.96,12.54 -1.21,18.33z"/>
  <path fill="#6B4D30" fill-rule="nonzero" d="M1552.68 1732.07c-0.33,0.83 -1.12,1.33 -1.96,1.33l-0.75 -0.13c-1.04,-0.41 -1.58,-1.62 -1.21,-2.66 2.09,-5.54 2.25,-11.7 0.75,-17.41l4.25 0c1.46,6.24 1.17,12.87 -1.08,18.87z"/>
  <path fill="#E58638" fill-rule="nonzero" d="M1626.22 1696.11l0 84.88 -184.04 0c0,-5.55 0.67,-10.92 1.96,-16.09 30.25,-0.75 106.34,3.65 137.12,-1.7 23.95,-4.17 37.96,-40.8 44.96,-67.09z"/>
  <path fill="#F79233" fill-rule="nonzero" d="M1826.69 476.02c-9.26,76.7 -53.87,125.7 -86.46,109.94 -34.41,-16.65 6.7,-51.8 9.38,-76.37 3.07,-28.09 -194.14,-52.04 -195.96,-62.97 -2.43,-14.59 19.94,-8.62 19.88,-12.25 -1.17,-78.25 77.08,-120.53 143.72,-112.47 69.71,8.42 118.72,77.43 109.44,154.12z"/>
  <path fill="#F27135" fill-rule="nonzero" d="M1757.6 574.15c-34.42,-16.65 6.69,-51.8 9.37,-76.37 3,-27.43 -184.93,-50.9 -195.48,-62.18 -5.45,0.88 -19.81,-0.82 -17.84,11.02 1.82,10.93 199.03,34.88 195.96,62.97 -2.68,24.57 -43.79,59.72 -9.38,76.37 13.76,6.66 29.65,1.73 44.13,-11.91 -9.18,3.9 -18.37,4.16 -26.76,0.1z"/>
  <path fill="#E68038" fill-rule="nonzero" d="M1717.25 321.9c-16.77,-2.03 -34.26,-0.86 -51.05,3.25 11.32,-1.38 22.73,-1.46 33.82,-0.13 69.72,8.43 118.72,77.44 109.45,154.13 -6.84,56.57 -32.91,98.04 -59.19,109.6 31.07,2.91 68.06,-43.67 76.41,-112.73 9.28,-76.69 -39.73,-145.7 -109.44,-154.12z"/>
  <path fill="#78BAE6" fill-rule="nonzero" d="M2003.13 423.13l577.71 0c0,0 41.86,-163.29 -104.66,-92.1 -16.73,-96.29 -65.62,-128.05 -181.42,-17.96 -23.71,-116.02 -224.65,-32.28 -291.63,110.06z"/>
  <path fill="#78BAE6" fill-rule="nonzero" d="M612.75 511.1l577.7 0c0,0 41.87,-163.29 -104.65,-92.1 -16.73,-96.29 -65.62,-128.05 -181.43,-17.96 -23.7,-116.02 -224.64,-32.28 -291.62,110.06z"/>
 </g>
</svg>
