<svg xmlns="http://www.w3.org/2000/svg" xmlns:xlink="http://www.w3.org/1999/xlink" width="787.19" height="349.109" viewBox="0 0 787.19 349.109">
  <defs>
    <linearGradient id="linear-gradient" x1="0.003" y1="0.5" x2="1" y2="0.5" gradientUnits="objectBoundingBox">
      <stop offset="0" stop-color="#ffaf87"/>
      <stop offset="0.02" stop-color="#ff8e72"/>
      <stop offset="0.29" stop-color="#ff8e72"/>
      <stop offset="0.549" stop-color="#ed6a5e"/>
      <stop offset="0.8" stop-color="#ed6a5e"/>
      <stop offset="1" stop-color="#ed6a5e"/>
    </linearGradient>
  </defs>
  <g id="logo" transform="translate(-29 -190)">
    <g id="Camada_x0020_1" transform="translate(29 190)">
      <g id="_2990071973920">
        <path id="Caminho_1" data-name="Caminho 1" d="M889.312,1570.179c-32.921-30.126-76.6-46.719-123-46.719s-90.077,16.593-122.992,46.719c-33.25,30.433-51.562,70.985-51.562,114.2,0,33.7,11.022,65.633,31.96,92.849l-30.965,76.6a13.639,13.639,0,0,0,18.144,17.589l87.723-38.672a188.852,188.852,0,0,0,135.356.023,13.643,13.643,0,0,0,8.708-12.717v-77.632a13.737,13.737,0,0,0,3.072-1.99l19.434-16.646a13.657,13.657,0,0,0,4.756-10.894,266.577,266.577,0,0,0-4.588-36.861c-5.462-27.829-14.418-48.2-26.608-60.547a13.636,13.636,0,0,0-23.339,9.581v185.362a159.938,159.938,0,0,1-49.1,7.6,163.492,163.492,0,0,1-24.549-1.84l.012-72.194c10.472-2.65,21.158-8.3,31.92-16.894a128.978,128.978,0,0,0,18.237-17.762,13.662,13.662,0,0,0,2.9-10.385L784.6,1623.234a13.638,13.638,0,1,0-27.031,3.651l9.4,69.515c-5.6,5.838-15.049,14.163-25.185,18.74l.017-90.077a13.639,13.639,0,0,0-13.631-13.643h-.006a13.642,13.642,0,0,0-13.637,13.637l-.017,90.089c-9.946-4.542-19.1-12.786-24.6-18.688l8.789-69.694a13.637,13.637,0,1,0-27.06-3.408l-9.546,75.712a13.66,13.66,0,0,0,2.8,10.119,125.044,125.044,0,0,0,17.9,17.832c10.634,8.644,21.251,14.32,31.706,16.975l-.012,65.506q-5.433-1.857-10.727-4.108a13.641,13.641,0,0,0-10.854.064l-62.283,27.453,21.384-52.9a13.619,13.619,0,0,0-2.262-13.955c-20.094-23.577-30.716-51.817-30.716-81.671,0-73.687,66.073-133.638,147.281-133.638S913.6,1610.691,913.6,1684.378c0,30.8-11.224,59.731-32.464,83.69a13.638,13.638,0,0,0,20.412,18.092c25.359-28.61,39.325-64.753,39.325-101.782,0-43.208-18.312-83.765-51.562-114.2ZM889.312,1570.179Z" transform="translate(-591.76 -1523.46)" fill-rule="evenodd" fill="url(#linear-gradient)"/>
        <path id="Caminho_2" data-name="Caminho 2" d="M1233.61,1688.781l10.4-.932a23.244,23.244,0,0,0,3.454,10.368,19.05,19.05,0,0,0,8.418,6.544,31.743,31.743,0,0,0,12.839,2.494,30.491,30.491,0,0,0,11.184-1.886,15.478,15.478,0,0,0,7.209-5.207,12.055,12.055,0,0,0,2.378-7.169,10.9,10.9,0,0,0-2.28-6.862q-2.274-2.916-7.539-4.929a154.264,154.264,0,0,0-14.91-4.073q-11.543-2.777-16.154-5.219a22.659,22.659,0,0,1-8.9-7.816,19.052,19.052,0,0,1-2.939-10.426,21.241,21.241,0,0,1,3.6-11.866,22.213,22.213,0,0,1,10.5-8.378,39.718,39.718,0,0,1,15.355-2.864,41.783,41.783,0,0,1,16.408,3,23.55,23.55,0,0,1,10.929,8.823,25.353,25.353,0,0,1,4.114,13.191l-10.64.822q-.851-7.923-5.786-11.965-4.938-4.062-14.6-4.056-10.05,0-14.655,3.685a11.076,11.076,0,0,0-4.6,8.887,9.568,9.568,0,0,0,3.257,7.423c2.141,1.927,7.7,3.934,16.7,5.965s15.182,3.818,18.531,5.334c4.854,2.245,8.459,5.068,10.779,8.517a20.673,20.673,0,0,1,3.466,11.866,22.664,22.664,0,0,1-3.818,12.572,25.11,25.11,0,0,1-10.97,9.176,38.3,38.3,0,0,1-16.113,3.275q-11.343,0-19-3.315a26.405,26.405,0,0,1-12.023-9.957,28.1,28.1,0,0,1-4.6-15.025Zm121.708,7.249,10.64,1.406a25.737,25.737,0,0,1-9.275,14.4q-6.778,5.112-17.322,5.126-13.269,0-21.042-8.187-7.776-8.158-7.776-22.935,0-15.257,7.851-23.7t20.4-8.435q12.133,0,19.822,8.262t7.7,23.264c0,.607-.017,1.522-.058,2.731h-45.186c.388,6.648,2.256,11.751,5.647,15.28a16.819,16.819,0,0,0,12.648,5.3,15.587,15.587,0,0,0,9.627-2.985q4-2.977,6.33-9.529Zm-33.667-16.483h33.788c-.451-5.1-1.753-8.927-3.876-11.479a15.722,15.722,0,0,0-12.711-5.942,16.288,16.288,0,0,0-11.884,4.739Q1322.177,1671.595,1321.651,1679.547Zm96.939,28.529a38.59,38.59,0,0,1-11.027,6.879,31.648,31.648,0,0,1-11.357,2.008q-10,0-15.378-4.872a16,16,0,0,1-5.375-12.433,16.627,16.627,0,0,1,2.025-8.129,16.912,16.912,0,0,1,5.317-5.884,25.127,25.127,0,0,1,7.406-3.367,77.334,77.334,0,0,1,9.159-1.539c8.3-.978,14.441-2.164,18.358-3.529.035-1.406.058-2.3.058-2.673q0-6.249-2.922-8.823-3.949-3.48-11.733-3.471c-4.848,0-8.436.856-10.738,2.557s-4.01,4.692-5.12,9.02l-10.055-1.406a24.864,24.864,0,0,1,4.519-10.443,19.962,19.962,0,0,1,9.118-6.115,40.778,40.778,0,0,1,13.8-2.146,36.385,36.385,0,0,1,12.665,1.834,16.767,16.767,0,0,1,7.151,4.594,16.47,16.47,0,0,1,3.217,7.018,59.6,59.6,0,0,1,.5,9.448v13.643c0,9.529.214,15.552.648,18.1a23.177,23.177,0,0,0,2.511,7.325H1420.58a22.849,22.849,0,0,1-1.99-7.6Zm-.816-22.8q-5.615,2.282-16.836,3.859a38.579,38.579,0,0,0-9,2.048,9.023,9.023,0,0,0-4.056,3.309,8.972,8.972,0,0,0,1.678,11.676q3.124,2.717,9.118,2.725a21.259,21.259,0,0,0,10.582-2.592,15.922,15.922,0,0,0,6.8-7.053c1.117-2.32,1.66-5.728,1.66-10.229Zm26.094,30.4v-60.68h9.234v9.3q3.541-6.457,6.549-8.516a11.38,11.38,0,0,1,6.6-2.065,20.406,20.406,0,0,1,10.582,3.257l-3.662,9.489a15.11,15.11,0,0,0-7.481-2.106,9.722,9.722,0,0,0-6.023,2.025,11,11,0,0,0-3.8,5.612,39.833,39.833,0,0,0-1.713,11.988v31.7Zm78.685-22.211,10.05,1.4c-1.111,6.92-3.911,12.318-8.453,16.235a24.757,24.757,0,0,1-16.738,5.867q-12.428,0-19.978-8.129-7.568-8.123-7.556-23.264a42.187,42.187,0,0,1,3.252-17.166,22.505,22.505,0,0,1,9.9-11.01,29.246,29.246,0,0,1,14.458-3.685c6.567,0,11.965,1.655,16.136,4.987q6.283,5,8.048,14.187l-9.94,1.522c-.955-4.073-2.633-7.134-5.068-9.2a13.122,13.122,0,0,0-8.765-3.078,16.041,16.041,0,0,0-12.647,5.554c-3.234,3.72-4.854,9.569-4.854,17.594q0,12.219,4.681,17.733a15.293,15.293,0,0,0,12.214,5.537,14.363,14.363,0,0,0,10.113-3.7Q1521.465,1701.154,1522.553,1693.462Zm18.821,22.211V1631.96h10.287v30.126a22.764,22.764,0,0,1,18.086-8.378,24.358,24.358,0,0,1,11.652,2.65,15.63,15.63,0,0,1,7.076,7.325c1.417,3.118,2.123,7.66,2.123,13.585v38.406h-10.293v-38.365q0-7.689-3.309-11.207c-2.222-2.337-5.34-3.506-9.4-3.506a16.535,16.535,0,0,0-8.534,2.355,13.453,13.453,0,0,0-5.71,6.434q-1.692,4.035-1.7,11.166v33.123h-10.287Zm-304.142,130.618v-83.713h28.842a70.275,70.275,0,0,1,14.91,1.186,28.538,28.538,0,0,1,12.271,6.006,33.9,33.9,0,0,1,9.9,14.3,55.886,55.886,0,0,1,3.3,19.914,58.574,58.574,0,0,1-2.222,16.894,41.065,41.065,0,0,1-5.71,12.2,30.207,30.207,0,0,1-7.643,7.585,30.909,30.909,0,0,1-9.974,4.206,57.127,57.127,0,0,1-13.463,1.423Zm11.108-9.818h17.849q8.271,0,12.977-1.545a18.506,18.506,0,0,0,7.5-4.345,26.536,26.536,0,0,0,6.115-10.617,51.972,51.972,0,0,0,2.2-16.154q0-13.157-4.3-20.227t-10.466-9.471q-4.443-1.727-14.32-1.718h-17.56v64.077Zm113.429-9.824,10.64,1.4a25.728,25.728,0,0,1-9.275,14.4q-6.778,5.12-17.322,5.126-13.269,0-21.042-8.181-7.776-8.158-7.776-22.934,0-15.266,7.851-23.7t20.4-8.435q12.133,0,19.816,8.262t7.7,23.264c0,.608-.023,1.522-.058,2.731h-45.192c.393,6.642,2.262,11.751,5.653,15.274a16.8,16.8,0,0,0,12.647,5.3,15.583,15.583,0,0,0,9.627-2.98q4-2.985,6.33-9.529Zm-33.673-16.483h33.794c-.451-5.109-1.759-8.927-3.882-11.479a15.686,15.686,0,0,0-12.705-5.942,16.283,16.283,0,0,0-11.884,4.733q-4.8,4.738-5.323,12.688Zm57.076,36.126v-83.713h10.293v83.713Zm26.209-72.02v-11.693h10.287v11.693Zm0,72.02v-60.68h10.287v60.68Zm42.56,0-22.9-60.68h11.01l12.977,36.34q2.109,5.875,3.9,12.219c.914-3.194,2.181-7.035,3.836-11.537l13.486-37.023h10.565l-22.975,60.68h-9.9Zm83.262-19.642,10.64,1.4a25.728,25.728,0,0,1-9.275,14.4q-6.778,5.12-17.322,5.126-13.269,0-21.042-8.181-7.776-8.158-7.776-22.934,0-15.266,7.851-23.7t20.4-8.435q12.133,0,19.816,8.262t7.7,23.264c0,.608-.023,1.522-.058,2.731h-45.192c.393,6.642,2.262,11.751,5.653,15.274a16.8,16.8,0,0,0,12.648,5.3,15.583,15.583,0,0,0,9.627-2.98q4-2.985,6.33-9.529Zm-33.673-16.483h33.794c-.451-5.109-1.759-8.927-3.882-11.479a15.686,15.686,0,0,0-12.705-5.942,16.283,16.283,0,0,0-11.884,4.733q-4.8,4.738-5.323,12.688Zm57.192,36.126v-60.68h9.24v9.3q3.532-6.465,6.544-8.517a11.4,11.4,0,0,1,6.607-2.065,20.412,20.412,0,0,1,10.582,3.252l-3.662,9.489a15.162,15.162,0,0,0-7.481-2.1,9.721,9.721,0,0,0-6.023,2.025,10.939,10.939,0,0,0-3.8,5.612,39.61,39.61,0,0,0-1.713,11.982v31.706Zm38.585,23.322-1.169-9.506a23.336,23.336,0,0,0,5.884.914,11.251,11.251,0,0,0,5.5-1.151,9.335,9.335,0,0,0,3.391-3.194,50.541,50.541,0,0,0,3.136-7.678c.2-.567.486-1.4.92-2.511l-23.033-60.877h10.987l12.665,35.038c1.66,4.42,3.118,9.1,4.426,14.007q1.779-6.925,4.229-13.66l12.937-35.385h10.27l-22.935,61.733a117.244,117.244,0,0,1-5.792,13.718,20.381,20.381,0,0,1-6.289,7.423,14.967,14.967,0,0,1-8.476,2.361,21.019,21.019,0,0,1-6.648-1.232Z" transform="translate(-862.255 -1568.595)" fill="#ed6a5e"/>
      </g>
    </g>
  </g>
</svg>
